
<!DOCTYPE svg PUBLIC "-//W3C//DTD SVG 1.1//EN" "http://www.w3.org/Graphics/SVG/1.1/DTD/svg11.dtd">
<svg fill="#5100d1" xmlns="http://www.w3.org/2000/svg" version="1.1" viewBox="0.00 0.00 512.00 512.00">
<path fill="inherit" d="
  M 0.00 171.44
  L 0.00 147.42
  L 38.60 127.05
  A 5.59 5.55 -4.7 0 0 41.28 123.91
  L 60.01 68.85
  A 1.88 1.86 -80.2 0 1 61.79 67.58
  L 95.73 67.76
  Q 96.95 67.76 96.95 68.98
  L 96.87 127.34
  Q 96.86 128.77 98.30 128.76
  C 125.06 128.62 150.09 128.55 174.37 129.00
  A 1.04 1.04 0.0 0 1 175.39 130.03
  L 175.72 173.00
  A 0.60 0.48 -0.5 0 1 175.12 173.49
  L 97.97 173.56
  Q 97.18 173.56 97.13 174.34
  Q 96.87 178.13 96.86 182.54
  Q 96.77 252.20 96.86 320.07
  C 96.88 336.21 100.92 350.95 116.11 358.89
  Q 120.23 361.04 126.27 361.78
  C 138.88 363.32 150.61 362.89 162.83 359.81
  Q 170.48 357.88 177.89 356.05
  A 0.44 0.43 -6.8 0 1 178.43 356.47
  L 178.40 398.08
  A 3.06 3.05 -10.0 0 1 176.38 400.95
  C 172.35 402.41 168.33 403.83 164.17 404.71
  C 158.91 405.81 154.00 407.23 148.57 408.02
  Q 131.43 410.51 113.46 410.04
  C 107.94 409.90 102.66 408.92 97.28 408.12
  C 89.61 406.98 82.74 404.09 75.71 400.87
  C 59.10 393.28 48.21 377.42 42.86 360.29
  Q 38.72 347.00 38.08 331.76
  Q 37.74 323.38 37.73 311.75
  Q 37.69 241.43 37.75 174.48
  A 0.99 0.98 -90.0 0 0 36.77 173.49
  L 1.17 173.52
  Q 0.64 173.52 0.48 173.01
  L 0.00 171.44
  Z"
/>
<path fill="inherit" d="
  M 234.94 396.63
  C 232.00 395.01 228.86 393.66 226.08 391.73
  Q 211.34 381.51 202.78 372.56
  C 187.47 356.57 177.52 335.63 171.41 313.14
  Q 169.74 307.01 168.86 300.87
  C 168.07 295.31 167.05 289.80 166.68 284.10
  Q 165.52 266.15 166.38 250.41
  Q 167.28 234.08 171.76 216.28
  Q 180.36 182.17 202.85 159.37
  Q 224.89 137.02 253.49 129.83
  Q 274.93 124.44 296.78 124.25
  Q 316.64 124.07 338.63 129.46
  Q 342.45 130.39 351.05 133.89
  Q 369.95 141.60 384.81 155.02
  C 392.47 161.95 398.86 168.68 404.34 177.37
  Q 417.70 198.56 423.06 222.68
  Q 429.30 250.79 427.11 283.84
  Q 425.16 313.29 414.03 339.43
  C 410.82 346.95 406.86 353.54 402.13 360.34
  Q 391.95 374.99 381.89 383.07
  Q 363.68 397.71 338.04 405.38
  Q 333.26 406.81 321.09 408.73
  Q 311.94 410.16 304.91 410.14
  Q 295.75 410.11 286.93 409.89
  Q 277.28 409.65 267.29 407.61
  C 255.83 405.27 244.90 402.12 234.94 396.63
  Z
  M 366.37 286.02
  Q 367.99 267.01 366.12 246.66
  Q 364.22 225.96 357.62 209.69
  Q 352.12 196.15 340.66 185.92
  Q 331.02 177.31 315.81 173.62
  C 311.26 172.52 306.45 172.41 301.82 171.97
  C 295.22 171.35 287.79 172.17 281.02 172.90
  Q 270.09 174.09 260.00 180.37
  C 253.65 184.31 248.13 188.44 244.07 194.84
  Q 231.45 214.71 228.37 237.26
  Q 225.60 257.52 226.88 280.40
  Q 227.95 299.58 232.54 314.69
  Q 235.31 323.82 241.19 333.85
  C 244.30 339.14 248.79 344.02 253.31 348.01
  Q 260.89 354.70 273.00 358.53
  Q 282.94 361.68 290.19 361.90
  Q 301.09 362.22 305.68 361.72
  C 323.56 359.78 339.34 352.39 349.77 337.65
  C 360.41 322.63 364.81 304.30 366.37 286.02
  Z"
/>
<path fill="inherit" d="
  M 462.84 411.71
  C 445.44 408.89 436.15 393.45 435.48 376.80
  Q 434.98 364.18 438.66 355.70
  Q 443.58 344.38 453.51 340.06
  Q 463.05 335.90 474.70 336.31
  C 485.08 336.67 496.73 341.02 502.87 349.53
  C 508.05 356.71 509.75 366.16 509.61 375.09
  Q 509.37 390.63 500.22 401.62
  C 491.28 412.36 475.77 413.80 462.84 411.71
  Z"
/>
</svg>
